<svg xmlns="http://www.w3.org/2000/svg" width="224.88" viewBox="0 0 224.88 150" height="150" version="1.0"><defs><clipPath id="a"><path d="M 85.804688 46.933594 L 143.535156 46.933594 L 143.535156 107.53125 L 85.804688 107.53125 Z M 85.804688 46.933594"/></clipPath><clipPath id="b"><path d="M 82 42.453125 L 130 42.453125 L 130 91 L 82 91 Z M 82 42.453125"/></clipPath><clipPath id="c"><path d="M 15 22.449219 L 210.316406 22.449219 L 210.316406 127.863281 L 15 127.863281 Z M 15 22.449219"/></clipPath></defs><path fill="#F3F5F9" d="M 27.175781 124.402344 L 27.175781 25.1875 L 191.496094 25.1875 L 191.496094 124.402344 L 27.175781 124.402344"/><path fill="#86AADF" d="M 102.09375 63.917969 C 101.851562 64.09375 101.617188 64.292969 101.398438 64.507812 C 100.824219 64.988281 100.378906 65.5625 100.070312 66.214844 C 99.734375 66.917969 99.558594 67.75 99.558594 68.617188 C 99.558594 70.625 100.476562 72.671875 101.894531 73.828125 C 103.917969 75.472656 107.40625 76.257812 109.890625 74.46875 C 111.609375 73.234375 112.59375 71.152344 112.59375 68.765625 C 112.59375 68.21875 112.539062 67.667969 112.4375 67.128906 C 111.957031 64.636719 109.890625 63.070312 106.765625 62.835938 C 104.835938 62.691406 103.308594 63.042969 102.09375 63.917969 Z M 126.867188 72.695312 C 125.917969 73.222656 124.980469 73.765625 124.042969 74.3125 C 123.265625 74.765625 122.484375 75.175781 121.898438 75.867188 C 121.738281 76.054688 121.867188 76.308594 122.058594 76.402344 C 122.046875 76.445312 122.039062 76.488281 122.035156 76.535156 C 122.011719 77.875 121.675781 79.613281 121.933594 80.925781 C 122.074219 81.644531 123.121094 81.316406 123.992188 80.777344 C 124.347656 80.636719 124.691406 80.457031 125.023438 80.265625 C 125.328125 80.132812 125.625 79.964844 125.875 79.832031 C 126.742188 79.382812 127.546875 78.859375 128.328125 78.300781 C 128.546875 78.167969 128.761719 78.035156 128.980469 77.902344 C 129.972656 77.308594 130.957031 76.710938 131.953125 76.125 C 132.671875 75.707031 133.683594 74.863281 134.574219 74.761719 C 135.320312 75.0625 136.039062 75.472656 136.734375 75.832031 C 137.6875 76.324219 138.957031 77.316406 140.0625 77.214844 C 140.203125 77.203125 140.277344 77.019531 140.214844 76.90625 C 140.132812 76.761719 140.03125 76.640625 139.921875 76.53125 C 138.871094 74.992188 137.765625 73.664062 136.339844 72.445312 C 135.183594 71.453125 133.796875 70.304688 132.183594 70.3125 C 131.277344 70.316406 130.5 70.722656 129.71875 71.136719 C 128.761719 71.644531 127.8125 72.171875 126.867188 72.695312 Z M 115.496094 82.941406 C 115.539062 82.929688 115.582031 82.917969 115.632812 82.917969 C 116.976562 82.890625 118.722656 82.558594 120.039062 82.8125 C 120.757812 82.953125 120.425781 83.996094 119.890625 84.867188 C 119.746094 85.222656 119.566406 85.5625 119.375 85.894531 C 119.242188 86.199219 119.070312 86.492188 118.941406 86.742188 C 118.488281 87.609375 117.964844 88.410156 117.402344 89.1875 C 117.269531 89.402344 117.136719 89.621094 117.003906 89.839844 C 116.410156 90.824219 115.804688 91.808594 115.21875 92.800781 C 114.800781 93.515625 113.953125 94.527344 113.851562 95.410156 C 114.15625 96.15625 114.566406 96.871094 114.925781 97.566406 C 115.417969 98.511719 116.414062 99.78125 116.3125 100.882812 C 116.300781 101.019531 116.117188 101.09375 116.003906 101.03125 C 115.859375 100.949219 115.738281 100.851562 115.628906 100.738281 C 114.082031 99.695312 112.75 98.59375 111.527344 97.171875 C 110.53125 96.019531 109.378906 94.636719 109.386719 93.03125 C 109.390625 92.128906 109.796875 91.351562 110.214844 90.574219 C 110.722656 89.617188 111.25 88.671875 111.777344 87.730469 C 112.304688 86.785156 112.851562 85.851562 113.402344 84.917969 C 113.855469 84.144531 114.265625 83.363281 114.960938 82.78125 C 115.152344 82.621094 115.402344 82.75 115.496094 82.941406"/><g clip-path="url(#a)"><path fill="#F6B737" d="M 102.246094 64.128906 C 102.007812 64.300781 101.78125 64.492188 101.578125 64.699219 C 101.046875 65.140625 100.609375 65.683594 100.304688 66.324219 C 99.195312 68.664062 100.074219 72.007812 102.0625 73.625 C 104.152344 75.328125 107.46875 75.890625 109.738281 74.257812 C 111.964844 72.65625 112.679688 69.777344 112.179688 67.179688 C 111.660156 64.464844 109.324219 63.289062 106.746094 63.09375 C 105.164062 62.976562 103.5625 63.183594 102.246094 64.128906 Z M 93.34375 47.078125 C 96.769531 48.179688 100.066406 49.429688 103.269531 51.089844 C 106.480469 52.753906 109.542969 54.746094 112.328125 57.046875 C 115.101562 59.335938 117.585938 61.96875 119.625 64.929688 C 121.757812 68.019531 123.363281 71.429688 124.785156 74.894531 C 125.148438 75.78125 125.503906 76.675781 125.851562 77.574219 C 126.214844 78.507812 126.707031 79.476562 126.925781 80.457031 C 127.023438 80.886719 126.984375 81.265625 126.832031 81.609375 C 126.828125 81.625 126.828125 81.640625 126.824219 81.65625 C 126.449219 83.050781 125.332031 83.941406 124.363281 84.9375 C 123.347656 85.980469 122.355469 87.046875 120.992188 87.632812 C 120.921875 87.664062 120.859375 87.671875 120.796875 87.664062 C 120.429688 87.84375 120.027344 87.894531 119.566406 87.789062 C 118.585938 87.574219 117.609375 87.082031 116.671875 86.71875 C 115.773438 86.375 114.875 86.019531 113.984375 85.65625 C 110.507812 84.242188 107.085938 82.640625 103.984375 80.515625 C 101.015625 78.484375 98.371094 76.007812 96.074219 73.246094 C 93.765625 70.464844 91.765625 67.417969 90.097656 64.214844 C 88.433594 61.023438 87.175781 57.738281 86.070312 54.324219 C 85.972656 54.285156 85.90625 54.191406 85.941406 54.074219 C 86.191406 53.296875 86.984375 52.65625 87.519531 52.058594 C 88.015625 51.511719 88.621094 50.558594 89.363281 50.359375 C 89.566406 49.617188 90.519531 49.015625 91.070312 48.523438 C 91.667969 47.988281 92.3125 47.199219 93.089844 46.949219 C 93.207031 46.914062 93.304688 46.980469 93.34375 47.078125 Z M 127.785156 87.617188 C 128.660156 87.59375 129.5625 88.0625 130.34375 88.398438 C 131.34375 88.828125 132.308594 89.339844 133.167969 90.003906 C 134.890625 91.332031 136.132812 93.285156 137.378906 95.039062 C 138.773438 97 140.023438 99.039062 141.285156 101.089844 C 141.484375 101.410156 141.054688 101.675781 140.796875 101.464844 C 139.738281 100.589844 138.644531 99.714844 137.605469 98.792969 C 137.679688 98.902344 137.757812 99.007812 137.832031 99.113281 C 138.4375 99.953125 139.046875 100.785156 139.644531 101.628906 C 140.242188 102.46875 140.839844 103.308594 141.4375 104.152344 C 142.09375 105.082031 142.699219 106.097656 143.449219 106.957031 C 143.738281 107.289062 143.300781 107.722656 142.964844 107.4375 C 141.335938 106.058594 139.867188 104.433594 138.367188 102.914062 C 137.234375 101.765625 136.128906 100.585938 135.046875 99.386719 C 135.292969 99.878906 135.527344 100.375 135.734375 100.886719 C 135.914062 101.195312 136.09375 101.503906 136.277344 101.808594 C 136.425781 102.050781 136.101562 102.246094 135.910156 102.089844 C 133.652344 100.273438 131.71875 97.863281 129.949219 95.582031 C 129.03125 94.394531 128.148438 93.175781 127.339844 91.90625 C 126.867188 91.171875 126.429688 90.34375 126.523438 89.5 C 126.390625 88.53125 126.628906 87.648438 127.785156 87.617188"/></g><g clip-path="url(#b)"><path fill="#E94759" d="M 84.921875 51.285156 C 85.328125 52.378906 85.785156 55.167969 86.949219 55.675781 C 88.058594 56.15625 90.082031 55.042969 91.015625 54.511719 C 92.226562 53.816406 96.769531 48.597656 94.160156 47.382812 C 92.210938 46.472656 84.640625 42.578125 82.476562 42.515625 C 81.527344 42.488281 84.300781 49.609375 84.921875 51.285156 Z M 126.824219 81.65625 C 126.824219 81.648438 126.824219 81.644531 126.828125 81.636719 C 126.863281 81.65625 126.898438 81.683594 126.917969 81.71875 C 127.125 82.074219 127.699219 83.042969 128.554688 84.292969 C 129.277344 85.339844 129.613281 86.410156 129.757812 87.011719 C 129.832031 87.3125 129.742188 87.628906 129.519531 87.847656 L 127.925781 89.4375 L 126.984375 90.375 C 126.765625 90.59375 126.449219 90.683594 126.144531 90.613281 C 125.539062 90.46875 124.46875 90.132812 123.414062 89.414062 C 122.160156 88.558594 121.191406 87.988281 120.835938 87.785156 C 120.792969 87.761719 120.765625 87.726562 120.746094 87.683594 C 120.761719 87.675781 120.78125 87.671875 120.796875 87.664062 C 120.859375 87.671875 120.921875 87.664062 120.992188 87.632812 C 122.355469 87.046875 123.347656 85.980469 124.363281 84.9375 C 125.332031 83.941406 126.449219 83.050781 126.824219 81.65625"/></g><path fill="#2E2E30" d="M 134.855469 96.042969 C 136.226562 97.441406 137.535156 99.085938 139.148438 100.222656 C 139.207031 100.261719 139.289062 100.179688 139.246094 100.121094 C 138.105469 98.519531 136.449219 97.21875 135.042969 95.855469 C 134.917969 95.738281 134.734375 95.921875 134.855469 96.042969 Z M 134.988281 99.105469 C 134.4375 98.492188 133.964844 97.789062 133.375 97.21875 C 133.324219 97.171875 133.25 97.230469 133.28125 97.292969 C 133.65625 98.023438 134.277344 98.660156 134.820312 99.269531 C 134.921875 99.378906 135.085938 99.214844 134.988281 99.105469 Z M 85.773438 45.070312 C 86.792969 45.953125 87.855469 46.761719 88.992188 47.492188 C 89.96875 48.121094 91.199219 49.054688 92.382812 49.175781 C 92.546875 49.191406 92.59375 48.980469 92.503906 48.878906 C 92.136719 48.449219 91.609375 48.191406 91.125 47.90625 C 90.535156 47.5625 89.953125 47.207031 89.367188 46.851562 C 88.242188 46.167969 87.128906 45.460938 86.023438 44.746094 C 85.828125 44.621094 85.59375 44.914062 85.773438 45.070312 Z M 124.425781 74.035156 C 124.546875 74.320312 124.667969 74.605469 124.785156 74.894531 C 125.148438 75.78125 125.503906 76.675781 125.851562 77.574219 C 126.109375 78.230469 126.425781 78.910156 126.671875 79.59375 C 127.347656 79.195312 126.605469 72.839844 126.316406 73.003906 C 125.398438 73.527344 124.65625 73.679688 124.425781 74.035156 Z M 98.898438 51.164062 C 102.464844 52.625 106.117188 54.113281 109.082031 56.632812 C 110.457031 57.796875 111.695312 59.101562 112.914062 60.425781 C 114.128906 61.742188 115.292969 63.261719 116.761719 64.300781 C 116.929688 64.417969 117.140625 64.175781 117.03125 64.019531 C 116.003906 62.535156 114.648438 61.214844 113.4375 59.878906 C 112.125 58.429688 110.761719 57.007812 109.234375 55.785156 C 106.210938 53.367188 102.652344 52.066406 99.023438 50.847656 C 98.839844 50.785156 98.71875 51.089844 98.898438 51.164062 Z M 94.722656 47.847656 C 94.511719 48.484375 94.417969 49.148438 94.175781 49.78125 C 93.945312 50.390625 93.648438 50.972656 93.296875 51.519531 C 92.933594 52.082031 92.527344 52.605469 92.109375 53.125 C 91.625 53.722656 91.140625 54.441406 90.402344 54.738281 C 90.253906 54.800781 90.308594 55.03125 90.46875 54.984375 C 91.78125 54.613281 92.828125 53.195312 93.574219 52.128906 C 94.394531 50.96875 95.21875 49.363281 95.222656 47.914062 C 95.226562 47.621094 94.8125 47.578125 94.722656 47.847656 Z M 105.902344 63.464844 C 107.101562 63.449219 108.089844 63.664062 109.1875 64.117188 C 109.300781 64.160156 109.410156 64.007812 109.347656 63.910156 C 108.679688 62.90625 107.101562 62.9375 106.03125 62.957031 C 104.542969 62.992188 103.164062 63.316406 101.886719 64.082031 C 101.761719 64.15625 101.871094 64.332031 102 64.273438 C 103.207031 63.722656 104.578125 63.476562 105.902344 63.464844 Z M 110.085938 64.300781 C 110.449219 64.921875 110.925781 65.453125 111.242188 66.105469 C 111.601562 66.855469 111.820312 67.671875 111.867188 68.5 C 111.953125 70.039062 111.464844 71.640625 110.59375 72.90625 C 110.523438 73.007812 110.683594 73.128906 110.761719 73.039062 C 111.910156 71.734375 112.519531 70.132812 112.40625 68.382812 C 112.304688 66.871094 111.671875 64.921875 110.339844 64.050781 C 110.179688 63.945312 109.996094 64.148438 110.085938 64.300781 Z M 125.726562 83.160156 C 125.980469 83.242188 126.328125 84.144531 126.46875 84.378906 C 126.746094 84.84375 127.023438 85.308594 127.304688 85.769531 C 127.808594 86.609375 128.28125 87.542969 128.933594 88.277344 C 129.015625 88.367188 129.191406 88.273438 129.148438 88.152344 C 128.695312 86.972656 127.871094 85.875 127.210938 84.800781 C 126.871094 84.25 126.554688 83.511719 126.101562 83.054688 C 125.960938 82.910156 125.917969 82.871094 125.726562 82.917969 C 125.597656 82.949219 125.609375 83.125 125.726562 83.160156 Z M 124.699219 85.140625 C 124.589844 85.058594 124.453125 85.210938 124.519531 85.320312 C 124.96875 86.050781 125.617188 86.671875 126.199219 87.300781 C 126.78125 87.929688 127.34375 88.628906 128.027344 89.152344 C 128.171875 89.265625 128.367188 89.050781 128.273438 88.90625 C 127.804688 88.1875 127.136719 87.574219 126.550781 86.949219 C 125.96875 86.324219 125.394531 85.640625 124.699219 85.140625 Z M 125.230469 88.441406 C 125.6875 88.734375 126.140625 89.027344 126.589844 89.332031 C 126.835938 89.496094 127.097656 89.777344 127.351562 89.921875 C 127.425781 89.96875 127.398438 90.105469 127.304688 90.097656 C 126.882812 90.0625 126.820312 90.101562 126.4375 89.882812 C 125.96875 89.613281 125.515625 89.316406 125.058594 89.03125 C 124.207031 88.492188 123.152344 87.988281 122.476562 87.234375 C 122.363281 87.113281 122.46875 86.890625 122.644531 86.945312 C 123.574219 87.230469 124.421875 87.921875 125.230469 88.441406"/><path fill="#FFF" d="M 129.949219 93.273438 C 129.589844 92.503906 129.257812 91.5625 128.683594 90.921875 C 128.621094 90.851562 128.515625 90.929688 128.535156 91.011719 C 128.722656 91.847656 129.304688 92.667969 129.726562 93.40625 C 129.808594 93.550781 130.015625 93.421875 129.949219 93.273438 Z M 129.339844 90.683594 C 129.21875 90.589844 129.074219 90.703125 129.132812 90.839844 C 129.492188 91.679688 130.265625 92.429688 130.855469 93.121094 C 131.519531 93.910156 132.21875 94.667969 132.921875 95.421875 C 133.019531 95.527344 133.171875 95.375 133.078125 95.265625 C 132.441406 94.511719 131.824219 93.738281 131.210938 92.964844 C 130.621094 92.21875 130.085938 91.28125 129.339844 90.683594 Z M 129.628906 89.800781 C 130.378906 90.433594 131.15625 91.085938 131.957031 91.648438 C 132.015625 91.691406 132.097656 91.609375 132.054688 91.550781 C 131.503906 90.746094 130.664062 90.035156 129.816406 89.554688 C 129.667969 89.472656 129.488281 89.683594 129.628906 89.800781 Z M 84.644531 48.113281 C 84.730469 49.035156 85.214844 49.9375 85.558594 50.789062 C 85.910156 51.65625 86.195312 52.609375 86.71875 53.390625 C 86.792969 53.5 87.015625 53.472656 86.996094 53.316406 C 86.867188 52.34375 86.4375 51.410156 86.089844 50.496094 C 85.777344 49.664062 85.5 48.695312 84.9375 47.992188 C 84.847656 47.878906 84.628906 47.972656 84.644531 48.113281 Z M 89.140625 58.601562 C 89.167969 59.214844 89.496094 59.777344 89.757812 60.320312 C 90.042969 60.910156 90.339844 61.496094 90.640625 62.074219 C 91.292969 63.320312 91.9375 64.566406 92.75 65.714844 C 92.886719 65.902344 93.257812 65.792969 93.160156 65.542969 C 92.660156 64.304688 92.039062 63.125 91.449219 61.929688 C 91.160156 61.34375 90.871094 60.753906 90.582031 60.167969 C 90.289062 59.578125 90.042969 58.878906 89.542969 58.433594 C 89.398438 58.304688 89.132812 58.386719 89.140625 58.601562 Z M 97.339844 71.425781 C 96.777344 70.742188 96.246094 70.035156 95.726562 69.320312 C 95.246094 68.664062 94.824219 67.925781 94.273438 67.324219 C 94.085938 67.125 93.722656 67.332031 93.808594 67.597656 C 94.300781 69.113281 95.476562 70.535156 96.464844 71.769531 C 97.597656 73.175781 98.832031 74.496094 100.164062 75.71875 C 101.429688 76.882812 102.75 77.976562 104.117188 79.019531 C 105.546875 80.113281 107.019531 81.09375 108.820312 81.441406 C 108.917969 81.460938 108.992188 81.324219 108.890625 81.273438 C 105.808594 79.695312 103.132812 77.449219 100.671875 75.035156 C 99.503906 73.886719 98.378906 72.691406 97.339844 71.425781 Z M 130.820312 75.777344 C 130.738281 75.855469 130.84375 75.980469 130.9375 75.929688 C 131.855469 75.433594 132.765625 74.9375 133.644531 74.375 C 133.726562 74.320312 133.722656 74.210938 133.644531 74.15625 C 133.199219 73.839844 132.726562 74.195312 132.347656 74.460938 C 131.796875 74.847656 131.308594 75.316406 130.820312 75.777344 Z M 111.539062 89.222656 C 111.035156 90.015625 110.777344 91.019531 110.5625 91.925781 C 110.359375 92.757812 110.40625 93.558594 110.726562 94.355469 C 111.390625 95.992188 112.816406 97.382812 113.984375 98.667969 C 114.042969 98.734375 114.152344 98.648438 114.105469 98.574219 C 113.683594 97.84375 113.261719 97.125 112.789062 96.421875 C 112.34375 95.75 111.839844 95.082031 111.519531 94.335938 C 110.800781 92.648438 112.058594 91.070312 112.066406 89.367188 C 112.070312 89.078125 111.6875 88.992188 111.539062 89.222656 Z M 107.796875 74.203125 C 107.300781 74.335938 106.8125 74.339844 106.304688 74.394531 C 106.21875 74.402344 106.152344 74.539062 106.253906 74.582031 C 107.195312 74.988281 108.414062 74.570312 109.222656 74.054688 C 109.355469 73.972656 109.273438 73.757812 109.117188 73.800781 C 108.671875 73.925781 108.242188 74.085938 107.796875 74.203125 Z M 104.46875 64.460938 C 104.988281 64.277344 105.527344 64.21875 106.058594 64.265625 C 106.28125 64.265625 106.507812 64.285156 106.734375 64.320312 C 107.972656 64.519531 108.960938 65.277344 109.761719 66.207031 C 111.0625 67.714844 111.695312 69.628906 110.492188 71.398438 C 109.339844 73.085938 107.371094 74.273438 105.277344 73.9375 C 103.140625 73.589844 101.632812 71.480469 101.425781 69.410156 C 101.226562 67.441406 102.582031 65.136719 104.46875 64.460938"/><g clip-path="url(#c)"><path fill="#F05454" d="M 15.125 31.398438 C 15.125 31.195312 15.132812 30.992188 15.148438 30.785156 C 15.175781 30.402344 15.226562 30.023438 15.308594 29.648438 C 15.40625 29.167969 15.550781 28.695312 15.730469 28.234375 C 15.925781 27.746094 16.164062 27.273438 16.445312 26.824219 C 16.734375 26.367188 17.0625 25.933594 17.433594 25.535156 C 17.847656 25.089844 18.308594 24.683594 18.804688 24.332031 C 19.273438 24 19.773438 23.714844 20.292969 23.484375 C 20.816406 23.25 21.363281 23.066406 21.921875 22.941406 C 22.316406 22.851562 22.714844 22.789062 23.117188 22.757812 C 23.351562 22.738281 23.582031 22.726562 23.816406 22.726562 C 83.035156 22.453125 142.261719 22.453125 201.484375 22.726562 C 201.71875 22.726562 201.949219 22.738281 202.183594 22.757812 C 202.585938 22.789062 202.984375 22.851562 203.378906 22.941406 C 203.882812 23.054688 204.382812 23.214844 204.859375 23.417969 C 205.386719 23.644531 205.890625 23.917969 206.363281 24.242188 C 206.839844 24.566406 207.285156 24.9375 207.6875 25.347656 C 208.09375 25.757812 208.453125 26.210938 208.769531 26.691406 C 209.042969 27.109375 209.28125 27.554688 209.480469 28.015625 C 209.683594 28.492188 209.84375 28.984375 209.960938 29.488281 C 210.046875 29.878906 210.109375 30.277344 210.144531 30.675781 C 210.164062 30.90625 210.175781 31.140625 210.175781 31.371094 C 210.3125 60.554688 210.3125 89.738281 210.175781 118.917969 C 210.175781 119.152344 210.164062 119.382812 210.144531 119.613281 C 210.109375 120.011719 210.046875 120.410156 209.960938 120.800781 C 209.84375 121.304688 209.683594 121.800781 209.480469 122.277344 C 209.238281 122.832031 208.941406 123.363281 208.59375 123.859375 C 208.261719 124.328125 207.882812 124.765625 207.464844 125.164062 C 207.058594 125.546875 206.617188 125.894531 206.144531 126.195312 C 205.707031 126.472656 205.242188 126.714844 204.761719 126.910156 C 204.296875 127.101562 203.816406 127.253906 203.324219 127.359375 C 202.921875 127.449219 202.511719 127.507812 202.101562 127.539062 C 201.894531 127.554688 201.691406 127.5625 201.484375 127.566406 C 142.261719 127.867188 83.039062 127.867188 23.816406 127.566406 C 23.609375 127.5625 23.40625 127.554688 23.203125 127.539062 C 22.789062 127.507812 22.382812 127.449219 21.976562 127.359375 C 21.460938 127.246094 20.953125 127.085938 20.46875 126.882812 C 19.964844 126.667969 19.480469 126.410156 19.023438 126.109375 C 18.558594 125.796875 18.121094 125.445312 17.722656 125.054688 C 17.324219 124.664062 16.964844 124.234375 16.648438 123.773438 C 16.335938 123.316406 16.066406 122.832031 15.84375 122.324219 C 15.625 121.816406 15.449219 121.289062 15.332031 120.75 C 15.242188 120.355469 15.183594 119.957031 15.152344 119.558594 C 15.136719 119.347656 15.125 119.132812 15.125 118.917969 C 14.984375 89.746094 15.078125 60.574219 15.125 31.398438 Z M 193.324219 72.433594 L 193.324219 77.875 C 193.324219 80.011719 195.066406 81.746094 197.21875 81.746094 L 202.683594 81.746094 C 204.832031 81.746094 206.578125 80.011719 206.578125 77.875 L 206.578125 72.433594 C 206.578125 70.296875 204.832031 68.5625 202.683594 68.5625 L 197.21875 68.5625 C 195.066406 68.5625 193.324219 70.296875 193.324219 72.433594 Z M 195.804688 73.453125 C 195.804688 72.117188 196.898438 71.03125 198.242188 71.03125 L 201.660156 71.03125 C 203.003906 71.03125 204.09375 72.117188 204.09375 73.453125 L 204.09375 76.855469 C 204.09375 78.191406 203.003906 79.277344 201.660156 79.277344 L 198.242188 79.277344 C 196.898438 79.277344 195.804688 78.191406 195.804688 76.855469 Z M 28.664062 25.785156 L 28.664062 124.484375 C 82.4375 124.566406 136.210938 124.742188 189.992188 124.53125 L 189.992188 25.777344 C 136.214844 25.675781 82.441406 25.550781 28.664062 25.777344 Z M 20.335938 57.882812 L 20.335938 92.425781 C 20.335938 92.832031 20.667969 93.164062 21.078125 93.164062 L 22.566406 93.164062 C 22.976562 93.164062 23.308594 92.832031 23.308594 92.425781 L 23.308594 57.882812 C 23.308594 57.476562 22.976562 57.144531 22.566406 57.144531 L 21.078125 57.144531 C 20.667969 57.144531 20.335938 57.476562 20.335938 57.882812 Z M 20.335938 57.882812" fill-rule="evenodd"/></g></svg>