<svg xmlns="http://www.w3.org/2000/svg" width="375" viewBox="0 0 375 375" height="375" version="1.0"><defs><clipPath id="a"><path d="M 98.609375 118.324219 L 276 118.324219 L 276 232 L 98.609375 232 Z M 98.609375 118.324219"/></clipPath><clipPath id="b"><path d="M 152 246 L 223 246 L 223 256.648438 L 152 256.648438 Z M 152 246"/></clipPath></defs><g clip-path="url(#a)"><path fill="#F05454" d="M 275.933594 226.011719 C 275.933594 229.082031 273.445312 231.578125 270.371094 231.578125 L 104.476562 231.578125 C 101.402344 231.578125 98.914062 229.082031 98.914062 226.011719 L 98.914062 123.882812 C 98.914062 120.804688 101.402344 118.308594 104.476562 118.308594 L 270.371094 118.308594 C 273.445312 118.308594 275.933594 120.804688 275.933594 123.882812 L 275.933594 226.011719"/></g><path fill="#F3F5F9" d="M 266.742188 223.398438 L 108.109375 223.398438 L 108.109375 126.496094 L 266.742188 126.496094 L 266.742188 223.398438"/><path fill="#FFCE6D" d="M 207.390625 246.664062 L 167.460938 246.664062 L 167.460938 231.578125 L 207.390625 231.578125 L 207.390625 246.664062"/><g clip-path="url(#b)"><path fill="#F05454" d="M 222.308594 256.648438 C 221.074219 250.941406 216 246.664062 209.929688 246.664062 L 164.917969 246.664062 C 158.847656 246.664062 153.773438 250.941406 152.539062 256.648438 L 222.308594 256.648438"/></g><g fill="#F05454"><g><g><path d="M 17.242188 -5.808594 C 17.097656 -5.882812 17.058594 -5.917969 17.058594 -5.992188 C 16.765625 -6.398438 16.472656 -6.800781 16.140625 -7.167969 C 15.773438 -7.535156 15.441406 -7.90625 15.074219 -8.273438 C 14.707031 -8.640625 14.375 -9.007812 14.042969 -9.375 C 13.675781 -9.742188 13.382812 -10.109375 13.089844 -10.550781 C 12.5 -11.324219 11.984375 -12.167969 11.542969 -13.050781 C 11.101562 -13.933594 10.625 -14.742188 10.109375 -15.515625 C 9.59375 -16.324219 9.082031 -17.023438 8.492188 -17.683594 C 7.90625 -18.308594 7.167969 -18.824219 6.285156 -19.226562 C 5.992188 -19.339844 5.699219 -19.375 5.40625 -19.375 C 5.109375 -19.375 4.816406 -19.375 4.523438 -19.375 C 4.042969 -19.410156 3.824219 -19.15625 3.898438 -18.640625 C 3.933594 -17.976562 3.898438 -17.351562 3.785156 -16.691406 C 3.675781 -16.03125 3.53125 -15.332031 3.382812 -14.667969 C 3.234375 -13.96875 3.050781 -13.273438 2.90625 -12.609375 C 2.757812 -11.949219 2.648438 -11.285156 2.609375 -10.660156 C 2.535156 -9.78125 2.535156 -8.933594 2.574219 -8.125 C 2.609375 -7.28125 2.574219 -6.433594 2.5 -5.589844 C 2.425781 -5.441406 2.425781 -5.257812 2.425781 -5.109375 C 2.425781 -4.925781 2.390625 -4.742188 2.351562 -4.558594 C 2.207031 -3.96875 2.132812 -3.382812 2.09375 -2.71875 C 2.058594 -2.058594 2.058594 -1.359375 2.058594 -0.660156 C 2.058594 0.0351562 2.09375 0.734375 2.132812 1.398438 C 2.167969 2.09375 2.207031 2.71875 2.28125 3.308594 C 2.316406 3.96875 2.425781 4.632812 2.574219 5.292969 C 2.71875 5.957031 2.90625 6.542969 3.199219 7.132812 C 3.457031 7.71875 3.785156 8.273438 4.226562 8.75 C 4.632812 9.265625 5.148438 9.667969 5.773438 9.964844 C 6.175781 10.21875 6.617188 10.40625 7.09375 10.515625 C 7.574219 10.625 8.050781 10.734375 8.492188 10.882812 C 8.53125 10.917969 8.566406 10.917969 8.601562 10.917969 C 8.601562 10.917969 8.640625 10.882812 8.714844 10.882812 C 9.558594 10.660156 10.257812 10.367188 10.773438 10 C 11.285156 9.667969 11.65625 9.265625 11.875 8.75 C 12.09375 8.234375 12.207031 7.648438 12.207031 6.984375 C 12.167969 6.324219 12.058594 5.515625 11.839844 4.632812 C 11.617188 3.898438 11.507812 3.160156 11.507812 2.390625 C 11.507812 1.617188 11.507812 0.84375 11.542969 0.0351562 C 11.582031 -0.734375 11.617188 -1.507812 11.691406 -2.316406 C 11.726562 -3.125 11.726562 -3.898438 11.691406 -4.632812 C 11.617188 -5.074219 11.617188 -5.476562 11.691406 -5.917969 C 11.726562 -6.359375 11.765625 -6.800781 11.839844 -7.28125 C 11.839844 -7.132812 11.984375 -6.875 12.316406 -6.582031 C 12.609375 -6.285156 12.976562 -5.957031 13.382812 -5.660156 C 13.785156 -5.332031 14.191406 -5.035156 14.558594 -4.78125 C 14.925781 -4.484375 15.148438 -4.300781 15.292969 -4.226562 C 15.515625 -3.96875 15.699219 -3.714844 15.808594 -3.492188 C 15.917969 -3.199219 16.066406 -2.941406 16.25 -2.683594 C 16.398438 -2.425781 16.472656 -2.132812 16.398438 -1.800781 C 16.398438 -1.765625 16.398438 -1.726562 16.433594 -1.691406 C 16.433594 -1.65625 16.472656 -1.617188 16.472656 -1.582031 C 16.65625 -1.175781 16.910156 -0.84375 17.242188 -0.625 C 17.535156 -0.40625 17.90625 -0.21875 18.273438 -0.109375 C 18.75 0.0742188 19.191406 0.0742188 19.632812 -0.109375 C 20.035156 -0.292969 20.292969 -0.699219 20.367188 -1.285156 C 20.515625 -2.207031 20.660156 -3.125 20.734375 -4.007812 C 20.808594 -4.890625 20.917969 -5.773438 21.066406 -6.65625 C 21.285156 -7.90625 21.507812 -9.15625 21.765625 -10.441406 C 21.984375 -11.691406 22.207031 -12.976562 22.390625 -14.265625 C 22.574219 -15.550781 22.722656 -16.839844 22.832031 -18.125 C 22.90625 -19.410156 22.941406 -20.699219 22.867188 -21.984375 C 22.832031 -22.351562 22.792969 -22.757812 22.757812 -23.125 C 22.722656 -23.492188 22.757812 -23.898438 22.90625 -24.339844 C 22.90625 -24.410156 22.90625 -24.484375 22.832031 -24.632812 C 22.757812 -24.742188 22.722656 -24.851562 22.683594 -24.925781 C 22.535156 -25.035156 22.425781 -25.148438 22.28125 -25.257812 C 22.132812 -25.332031 22.023438 -25.441406 21.910156 -25.550781 C 21.65625 -25.734375 21.398438 -25.773438 21.175781 -25.660156 C 20.957031 -25.550781 20.808594 -25.367188 20.808594 -25.109375 C 20.773438 -24.964844 20.773438 -24.816406 20.773438 -24.667969 C 20.773438 -24.523438 20.808594 -24.410156 20.808594 -24.300781 C 20.847656 -23.933594 20.882812 -23.53125 20.957031 -23.160156 C 20.992188 -22.792969 20.992188 -22.425781 20.917969 -22.097656 C 20.847656 -21.582031 20.773438 -21.066406 20.699219 -20.550781 C 20.625 -20.035156 20.515625 -19.558594 20.441406 -19.042969 C 20.40625 -18.898438 20.367188 -18.75 20.332031 -18.601562 C 20.292969 -18.457031 20.257812 -18.308594 20.257812 -18.160156 C 20.183594 -17.792969 20.148438 -17.425781 20.109375 -17.058594 C 20.074219 -16.691406 20.035156 -16.359375 20 -16.03125 L 19.925781 -15.882812 C 19.632812 -15 19.375 -14.082031 19.082031 -13.199219 C 18.785156 -12.316406 18.566406 -11.398438 18.382812 -10.476562 C 18.199219 -9.742188 18.015625 -9.007812 17.867188 -8.273438 C 17.722656 -7.535156 17.535156 -6.800781 17.351562 -6.101562 C 17.351562 -5.992188 17.316406 -5.882812 17.242188 -5.808594 Z M 17.242188 -5.808594" transform="translate(157.57 179.766)"/></g></g></g><g fill="#F05454"><g><g><path d="M 9.300781 -10.992188 C 9.042969 -11.03125 8.824219 -11.101562 8.675781 -11.25 C 8.640625 -11.25 8.601562 -11.25 8.566406 -11.25 C 8.53125 -11.25 8.492188 -11.25 8.457031 -11.25 C 8.234375 -11.175781 8.089844 -11.03125 7.976562 -10.882812 L 7.609375 -10.367188 C 7.316406 -10 6.984375 -9.707031 6.691406 -9.410156 C 6.359375 -9.117188 6.066406 -8.785156 5.808594 -8.417969 C 5.660156 -8.234375 5.550781 -8.234375 5.441406 -8.417969 C 5.292969 -8.566406 5.148438 -8.785156 5.035156 -9.007812 C 4.890625 -9.226562 4.707031 -9.484375 4.449219 -9.78125 C 4.15625 -10.074219 3.859375 -10.332031 3.53125 -10.589844 C 3.160156 -10.84375 2.832031 -11.066406 2.5 -11.25 C 2.132812 -11.433594 1.839844 -11.542969 1.582031 -11.542969 C 1.433594 -11.542969 1.214844 -11.507812 0.992188 -11.433594 C 0.734375 -11.359375 0.660156 -11.214844 0.808594 -10.992188 C 0.808594 -10.917969 0.84375 -10.882812 0.917969 -10.84375 C 0.957031 -10.808594 0.992188 -10.773438 1.066406 -10.734375 C 1.214844 -10.589844 1.433594 -10.367188 1.691406 -10.148438 C 1.949219 -9.925781 2.207031 -9.667969 2.464844 -9.410156 C 2.71875 -9.15625 2.976562 -8.898438 3.199219 -8.640625 C 3.417969 -8.382812 3.566406 -8.160156 3.714844 -8.015625 C 3.785156 -7.867188 3.898438 -7.71875 3.96875 -7.574219 C 4.042969 -7.425781 4.15625 -7.28125 4.265625 -7.167969 C 4.375 -7.023438 4.410156 -6.875 4.410156 -6.800781 C 4.410156 -6.726562 4.339844 -6.617188 4.226562 -6.507812 C 4.082031 -6.359375 3.898438 -6.066406 3.601562 -5.625 C 3.308594 -5.148438 2.976562 -4.632812 2.648438 -4.117188 C 2.28125 -3.601562 1.949219 -3.089844 1.65625 -2.648438 C 1.359375 -2.167969 1.140625 -1.875 1.066406 -1.726562 C 0.917969 -1.507812 0.734375 -1.285156 0.550781 -1.066406 C 0.367188 -0.84375 0.21875 -0.589844 0.109375 -0.367188 C -0.0351562 -0.148438 -0.109375 0.109375 -0.148438 0.367188 C -0.183594 0.660156 -0.109375 0.917969 0.0351562 1.175781 C 0.21875 1.46875 0.40625 1.726562 0.589844 2.023438 C 0.734375 2.316406 0.992188 2.5 1.359375 2.648438 C 1.507812 2.71875 1.691406 2.832031 1.839844 2.90625 C 1.984375 2.976562 2.167969 3.050781 2.351562 3.125 C 2.5 3.199219 2.609375 3.125 2.71875 2.976562 C 2.867188 2.71875 3.015625 2.425781 3.160156 2.132812 C 3.273438 1.839844 3.457031 1.582031 3.675781 1.285156 C 3.75 1.214844 3.898438 0.917969 4.191406 0.476562 C 4.484375 0.0351562 4.78125 -0.476562 5.074219 -0.992188 C 5.367188 -1.507812 5.660156 -1.984375 5.957031 -2.425781 C 6.25 -2.867188 6.433594 -3.125 6.507812 -3.273438 C 6.582031 -3.417969 6.691406 -3.457031 6.839844 -3.308594 C 6.910156 -3.234375 6.949219 -3.160156 6.984375 -3.125 C 7.09375 -2.976562 7.207031 -2.867188 7.316406 -2.71875 C 7.390625 -2.574219 7.5 -2.425781 7.648438 -2.28125 C 7.71875 -2.132812 7.832031 -2.023438 7.941406 -1.949219 C 8.015625 -1.875 8.125 -1.765625 8.273438 -1.65625 C 8.417969 -1.507812 8.601562 -1.398438 8.75 -1.25 C 8.898438 -1.101562 9.042969 -0.992188 9.226562 -0.882812 C 9.300781 -0.773438 9.449219 -0.699219 9.632812 -0.660156 C 9.742188 -0.625 9.851562 -0.589844 9.964844 -0.589844 C 10.074219 -0.589844 10.183594 -0.550781 10.332031 -0.550781 C 10.367188 -0.625 10.40625 -0.660156 10.476562 -0.734375 C 10.550781 -0.808594 10.589844 -0.882812 10.660156 -0.957031 C 10.773438 -1.140625 10.808594 -1.398438 10.734375 -1.691406 C 10.699219 -1.800781 10.589844 -1.875 10.40625 -1.949219 C 10.332031 -1.949219 10.21875 -1.949219 10.148438 -2.023438 C 9.632812 -2.316406 9.226562 -2.648438 8.859375 -3.089844 C 8.492188 -3.492188 8.125 -3.933594 7.792969 -4.410156 C 7.683594 -4.523438 7.648438 -4.59375 7.648438 -4.667969 C 7.648438 -4.707031 7.683594 -4.78125 7.792969 -4.925781 C 8.015625 -5.257812 8.308594 -5.550781 8.640625 -5.84375 C 8.933594 -6.140625 9.226562 -6.433594 9.523438 -6.800781 C 9.667969 -6.984375 9.816406 -7.167969 10.035156 -7.351562 C 10.21875 -7.5 10.367188 -7.71875 10.476562 -7.976562 C 10.625 -8.273438 10.660156 -8.601562 10.589844 -8.96875 C 10.515625 -9.339844 10.40625 -9.667969 10.257812 -10 C 10.183594 -10.148438 10.074219 -10.292969 10 -10.441406 C 9.890625 -10.589844 9.78125 -10.699219 9.632812 -10.808594 C 9.558594 -10.84375 9.523438 -10.882812 9.449219 -10.882812 C 9.375 -10.882812 9.339844 -10.917969 9.300781 -10.992188 Z M 9.300781 -10.992188" transform="translate(185.398 179.766)"/></g></g></g><g fill="#F05454"><g><g><path d="M 14.707031 -4.042969 C 14.742188 -3.824219 14.742188 -3.675781 14.742188 -3.53125 C 14.742188 -3.382812 14.707031 -3.234375 14.707031 -3.089844 C 14.632812 -2.71875 14.558594 -2.390625 14.523438 -2.023438 C 14.449219 -1.65625 14.449219 -1.324219 14.523438 -0.957031 C 14.523438 -0.625 14.742188 -0.40625 15.109375 -0.332031 C 15.148438 -0.257812 15.183594 -0.257812 15.222656 -0.257812 C 15.222656 -0.257812 15.257812 -0.21875 15.332031 -0.183594 C 15.589844 -0.0742188 15.808594 -0.0742188 15.957031 -0.21875 C 16.101562 -0.257812 16.214844 -0.332031 16.324219 -0.476562 C 16.398438 -0.589844 16.507812 -0.699219 16.582031 -0.84375 L 16.582031 -0.882812 C 16.617188 -1.066406 16.65625 -1.214844 16.65625 -1.359375 C 16.65625 -1.46875 16.691406 -1.582031 16.726562 -1.726562 C 16.765625 -2.023438 16.800781 -2.316406 16.875 -2.574219 C 16.949219 -2.832031 16.984375 -3.089844 16.984375 -3.382812 C 16.949219 -3.675781 16.910156 -4.007812 16.839844 -4.300781 C 16.765625 -4.59375 16.691406 -4.890625 16.542969 -5.109375 C 16.398438 -5.332031 16.214844 -5.476562 15.992188 -5.625 C 15.734375 -5.734375 15.40625 -5.808594 15.035156 -5.808594 C 14.667969 -5.808594 14.410156 -5.734375 14.265625 -5.625 C 14.042969 -5.476562 13.785156 -5.367188 13.566406 -5.257812 C 13.34375 -5.148438 13.125 -5.035156 12.941406 -4.925781 C 12.90625 -4.890625 12.867188 -4.890625 12.832031 -4.890625 L 12.71875 -4.890625 C 12.609375 -5 12.535156 -5.148438 12.5 -5.292969 C 12.425781 -5.441406 12.351562 -5.550781 12.28125 -5.660156 C 12.132812 -5.882812 11.984375 -6.101562 11.800781 -6.398438 C 11.582031 -6.65625 11.359375 -6.910156 11.140625 -7.132812 C 10.882812 -7.351562 10.625 -7.535156 10.332031 -7.683594 C 10.035156 -7.832031 9.78125 -7.867188 9.523438 -7.867188 C 8.859375 -7.867188 8.308594 -7.683594 7.941406 -7.316406 C 7.535156 -6.949219 7.207031 -6.507812 6.949219 -6.03125 C 6.65625 -5.476562 6.285156 -4.890625 5.917969 -4.300781 C 5.882812 -4.117188 5.808594 -3.933594 5.660156 -3.785156 C 5.589844 -3.859375 5.589844 -3.933594 5.625 -4.007812 C 5.625 -4.339844 5.660156 -4.667969 5.660156 -5 C 5.660156 -5.292969 5.699219 -5.625 5.699219 -5.957031 C 5.699219 -6.140625 5.699219 -6.324219 5.660156 -6.507812 C 5.625 -6.65625 5.625 -6.875 5.660156 -7.09375 C 5.734375 -7.648438 5.808594 -8.199219 5.957031 -8.75 C 6.066406 -9.265625 6.175781 -9.816406 6.25 -10.332031 C 6.324219 -10.84375 6.359375 -11.398438 6.359375 -11.949219 C 6.359375 -12.464844 6.25 -13.050781 6.101562 -13.640625 C 6.101562 -13.675781 6.066406 -13.714844 6.066406 -13.785156 C 6.03125 -13.824219 6.03125 -13.859375 6.03125 -13.898438 C 5.808594 -14.007812 5.660156 -14.15625 5.515625 -14.375 C 5.367188 -14.558594 5.183594 -14.707031 5 -14.851562 C 4.632812 -15.035156 4.226562 -15.109375 3.824219 -15.074219 C 3.382812 -15 3.050781 -14.816406 2.757812 -14.484375 C 2.683594 -14.410156 2.648438 -14.339844 2.683594 -14.339844 C 2.683594 -14.117188 2.683594 -13.96875 2.683594 -13.859375 C 2.648438 -13.714844 2.648438 -13.601562 2.648438 -13.492188 C 2.574219 -12.976562 2.464844 -12.425781 2.351562 -11.910156 C 2.207031 -11.398438 2.09375 -10.882812 1.984375 -10.40625 C 1.691406 -9.300781 1.507812 -8.234375 1.359375 -7.132812 C 1.214844 -6.03125 1.066406 -4.890625 0.992188 -3.785156 C 0.882812 -2.648438 0.808594 -1.507812 0.734375 -0.40625 C 0.660156 0.699219 0.550781 1.839844 0.441406 2.941406 C 0.441406 3.273438 0.367188 3.566406 0.257812 3.785156 L 0.257812 4.082031 C 0.257812 4.191406 0.257812 4.265625 0.292969 4.339844 C 0.292969 4.410156 0.292969 4.484375 0.257812 4.558594 C 0.21875 4.667969 0.21875 4.816406 0.292969 4.964844 C 0.332031 5.148438 0.40625 5.332031 0.476562 5.476562 C 0.550781 5.660156 0.660156 5.808594 0.773438 5.957031 C 0.882812 6.101562 0.992188 6.175781 1.066406 6.214844 C 1.175781 6.285156 1.285156 6.359375 1.433594 6.433594 C 1.582031 6.507812 1.65625 6.65625 1.65625 6.800781 C 1.800781 6.839844 1.984375 6.910156 2.207031 7.058594 L 2.316406 7.058594 C 2.648438 6.984375 2.90625 7.058594 3.125 7.28125 C 3.273438 7.242188 3.382812 7.207031 3.53125 7.132812 C 3.640625 7.09375 3.785156 7.058594 3.933594 7.058594 C 4.226562 6.984375 4.449219 6.765625 4.59375 6.398438 C 4.632812 6.324219 4.667969 6.214844 4.667969 6.101562 C 4.667969 5.992188 4.667969 5.882812 4.707031 5.734375 C 4.707031 5.441406 4.742188 5.183594 4.78125 4.890625 C 4.78125 4.59375 4.816406 4.300781 4.890625 4.007812 C 4.925781 3.53125 4.964844 3.050781 5 2.609375 C 5.035156 2.167969 5.109375 1.691406 5.21875 1.175781 C 5.40625 0.257812 5.699219 -0.625 6.101562 -1.507812 C 6.46875 -2.351562 6.875 -3.199219 7.242188 -4.082031 C 7.28125 -4.117188 7.316406 -4.15625 7.390625 -4.191406 C 7.425781 -4.226562 7.464844 -4.300781 7.5 -4.449219 C 7.574219 -4.632812 7.648438 -4.816406 7.71875 -5.035156 C 7.792969 -5.21875 7.976562 -5.367188 8.234375 -5.515625 C 8.273438 -5.515625 8.308594 -5.550781 8.308594 -5.589844 C 8.308594 -5.625 8.308594 -5.660156 8.382812 -5.660156 C 8.457031 -5.699219 8.53125 -5.734375 8.566406 -5.773438 C 8.566406 -5.699219 8.566406 -5.625 8.601562 -5.550781 C 8.601562 -5.476562 8.640625 -5.441406 8.640625 -5.40625 C 8.566406 -5.183594 8.53125 -4.964844 8.53125 -4.742188 C 8.492188 -4.523438 8.457031 -4.300781 8.417969 -4.082031 C 8.308594 -3.640625 8.199219 -3.199219 8.125 -2.71875 C 8.050781 -2.242188 8.015625 -1.800781 8.089844 -1.433594 C 8.089844 -1.398438 8.089844 -1.359375 8.089844 -1.324219 C 8.089844 -1.285156 8.089844 -1.25 8.089844 -1.25 C 7.976562 -0.992188 7.941406 -0.773438 7.941406 -0.589844 C 7.941406 -0.367188 7.941406 -0.148438 7.941406 0.109375 C 7.941406 0.367188 8.050781 0.625 8.273438 0.882812 C 8.492188 1.140625 8.75 1.359375 9.042969 1.542969 C 9.339844 1.726562 9.632812 1.839844 9.964844 1.910156 C 10.257812 1.984375 10.515625 1.984375 10.734375 1.839844 C 10.84375 1.800781 10.957031 1.765625 11.066406 1.726562 C 11.140625 1.691406 11.25 1.617188 11.359375 1.542969 C 11.398438 1.542969 11.433594 1.507812 11.507812 1.507812 C 11.542969 1.507812 11.582031 1.46875 11.617188 1.398438 C 11.726562 1.214844 11.839844 1.03125 11.984375 0.84375 C 12.132812 0.660156 12.242188 0.441406 12.351562 0.148438 C 12.390625 0.0351562 12.464844 -0.0742188 12.574219 -0.183594 C 12.648438 -0.257812 12.71875 -0.40625 12.71875 -0.589844 C 12.648438 -0.660156 12.609375 -0.734375 12.609375 -0.808594 C 12.609375 -0.882812 12.648438 -0.957031 12.648438 -1.03125 C 12.574219 -1.25 12.574219 -1.433594 12.609375 -1.617188 C 12.609375 -1.765625 12.648438 -1.949219 12.683594 -2.167969 C 12.683594 -2.242188 12.71875 -2.28125 12.71875 -2.316406 C 12.71875 -2.351562 12.71875 -2.390625 12.757812 -2.464844 C 12.90625 -2.609375 13.050781 -2.757812 13.199219 -2.90625 C 13.34375 -3.050781 13.492188 -3.199219 13.675781 -3.34375 C 13.75 -3.382812 13.824219 -3.457031 13.898438 -3.53125 C 13.96875 -3.601562 14.082031 -3.675781 14.191406 -3.75 C 14.339844 -3.933594 14.484375 -4.042969 14.707031 -4.042969 Z M 14.707031 -4.042969" transform="translate(200.213 179.766)"/></g></g></g></svg>