<svg xmlns="http://www.w3.org/2000/svg" width="224.88" viewBox="0 0 224.88 150" height="150" version="1.0"><defs><clipPath id="a"><path d="M 74.625 45.625 L 150.332031 45.625 L 150.332031 92.847656 L 74.625 92.847656 Z M 74.625 45.625"/></clipPath><clipPath id="b"><path d="M 35.378906 15.03125 L 188.910156 15.03125 L 188.910156 114 L 35.378906 114 Z M 35.378906 15.03125"/></clipPath><clipPath id="c"><path d="M 81 126 L 143 126 L 143 134.894531 L 81 134.894531 Z M 81 126"/></clipPath><clipPath id="d"><path d="M 80.96875 39 L 139.890625 39 L 139.890625 94.054688 L 80.96875 94.054688 Z M 80.96875 39"/></clipPath><clipPath id="e"><path d="M 97 35 L 144.242188 35 L 144.242188 81 L 97 81 Z M 97 35"/></clipPath></defs><g clip-path="url(#a)"><path fill="#FFF" d="M 64.105469 45.9375 L 150.359375 45.9375 L 150.359375 92.535156 L 64.105469 92.535156 Z M 64.105469 45.9375"/><path fill="#070404" d="M 150.359375 92.847656 L 64.105469 92.847656 C 63.929688 92.847656 63.789062 92.710938 63.789062 92.535156 L 63.789062 45.9375 C 63.789062 45.761719 63.929688 45.625 64.105469 45.625 L 150.359375 45.625 C 150.539062 45.625 150.679688 45.761719 150.679688 45.9375 L 150.679688 92.535156 C 150.679688 92.710938 150.539062 92.847656 150.359375 92.847656 Z M 64.421875 92.21875 L 150.042969 92.21875 L 150.042969 46.253906 L 64.421875 46.253906 Z M 64.421875 92.21875"/></g><g clip-path="url(#b)"><path fill="#F05454" d="M 188.558594 108.351562 C 188.558594 111.007812 186.410156 113.171875 183.753906 113.171875 L 40.457031 113.171875 C 37.796875 113.171875 35.652344 111.007812 35.652344 108.351562 L 35.652344 19.859375 C 35.652344 17.195312 37.796875 15.03125 40.457031 15.03125 L 183.753906 15.03125 C 186.410156 15.03125 188.558594 17.195312 188.558594 19.859375 L 188.558594 108.351562"/></g><path fill="#F3F5F9" d="M 180.617188 106.085938 L 43.589844 106.085938 L 43.589844 22.125 L 180.617188 22.125 L 180.617188 106.085938"/><path fill="#FFCE6D" d="M 129.351562 126.242188 L 94.859375 126.242188 L 94.859375 113.171875 L 129.351562 113.171875 L 129.351562 126.242188"/><g clip-path="url(#c)"><path fill="#F05454" d="M 142.238281 134.894531 C 141.171875 129.949219 136.789062 126.242188 131.546875 126.242188 L 92.664062 126.242188 C 87.417969 126.242188 83.039062 129.949219 81.972656 134.894531 L 142.238281 134.894531"/></g><path fill="#86AADF" d="M 123.375 54.453125 C 123.207031 54.21875 123.011719 53.996094 122.804688 53.789062 C 122.335938 53.242188 121.78125 52.8125 121.144531 52.519531 C 120.460938 52.199219 119.652344 52.03125 118.808594 52.03125 C 116.855469 52.03125 114.867188 52.90625 113.742188 54.265625 C 112.140625 56.195312 111.378906 59.527344 113.121094 61.90625 C 114.320312 63.542969 116.339844 64.484375 118.664062 64.484375 C 119.195312 64.484375 119.730469 64.4375 120.253906 64.335938 C 122.679688 63.878906 124.199219 61.90625 124.429688 58.917969 C 124.570312 57.074219 124.226562 55.613281 123.375 54.453125 Z M 114.84375 78.125 C 114.328125 77.21875 113.800781 76.324219 113.269531 75.429688 C 112.828125 74.6875 112.429688 73.9375 111.757812 73.378906 C 111.574219 73.226562 111.332031 73.347656 111.238281 73.535156 C 111.199219 73.519531 111.15625 73.511719 111.109375 73.511719 C 109.804688 73.488281 108.113281 73.164062 106.839844 73.410156 C 106.140625 73.546875 106.460938 74.546875 106.980469 75.382812 C 107.121094 75.722656 107.292969 76.046875 107.480469 76.367188 C 107.613281 76.65625 107.777344 76.9375 107.902344 77.179688 C 108.339844 78.007812 108.851562 78.777344 109.394531 79.523438 C 109.523438 79.730469 109.648438 79.9375 109.777344 80.148438 C 110.355469 81.09375 110.9375 82.035156 111.507812 82.988281 C 111.914062 83.675781 112.734375 84.644531 112.832031 85.492188 C 112.539062 86.207031 112.140625 86.890625 111.792969 87.558594 C 111.316406 88.464844 110.351562 89.683594 110.449219 90.738281 C 110.460938 90.871094 110.636719 90.941406 110.746094 90.882812 C 110.886719 90.804688 111.003906 90.707031 111.113281 90.601562 C 112.609375 89.601562 113.898438 88.542969 115.085938 87.179688 C 116.050781 86.078125 117.167969 84.75 117.160156 83.207031 C 117.15625 82.34375 116.761719 81.597656 116.359375 80.851562 C 115.867188 79.9375 115.351562 79.03125 114.84375 78.125 Z M 104.878906 67.261719 C 104.890625 67.300781 104.902344 67.34375 104.902344 67.390625 C 104.925781 68.675781 105.253906 70.34375 105.003906 71.601562 C 104.867188 72.289062 103.851562 71.972656 103.003906 71.460938 C 102.660156 71.320312 102.332031 71.152344 102.007812 70.96875 C 101.710938 70.839844 101.425781 70.675781 101.183594 70.554688 C 100.34375 70.121094 99.5625 69.617188 98.808594 69.082031 C 98.597656 68.957031 98.386719 68.828125 98.171875 68.703125 C 97.214844 68.132812 96.257812 67.558594 95.292969 66.996094 C 94.597656 66.59375 93.617188 65.785156 92.753906 65.6875 C 92.03125 65.980469 91.335938 66.371094 90.660156 66.714844 C 89.738281 67.1875 88.503906 68.136719 87.4375 68.042969 C 87.300781 68.03125 87.230469 67.855469 87.289062 67.746094 C 87.367188 67.609375 87.464844 67.492188 87.574219 67.386719 C 88.589844 65.910156 89.660156 64.636719 91.042969 63.464844 C 92.164062 62.515625 93.507812 61.414062 95.070312 61.421875 C 95.945312 61.425781 96.703125 61.816406 97.460938 62.210938 C 98.386719 62.699219 99.304688 63.203125 100.222656 63.707031 C 101.140625 64.210938 102.050781 64.734375 102.957031 65.257812 C 103.710938 65.695312 104.46875 66.085938 105.035156 66.75 C 105.191406 66.929688 105.066406 67.171875 104.878906 67.261719"/><g clip-path="url(#d)"><path fill="#F6B737" d="M 123.171875 54.597656 C 123.003906 54.371094 122.816406 54.15625 122.617188 53.957031 C 122.191406 53.453125 121.660156 53.035156 121.039062 52.742188 C 118.761719 51.683594 115.511719 52.523438 113.9375 54.421875 C 112.28125 56.421875 111.738281 59.589844 113.324219 61.757812 C 114.882812 63.886719 117.679688 64.566406 120.207031 64.09375 C 122.84375 63.59375 123.988281 61.363281 124.175781 58.898438 C 124.292969 57.386719 124.09375 55.855469 123.171875 54.597656 Z M 139.753906 46.089844 C 138.679688 49.363281 137.464844 52.515625 135.851562 55.574219 C 134.234375 58.644531 132.296875 61.570312 130.058594 64.234375 C 127.832031 66.882812 125.273438 69.257812 122.394531 71.207031 C 119.386719 73.242188 116.074219 74.777344 112.707031 76.136719 C 111.839844 76.484375 110.972656 76.824219 110.101562 77.15625 C 109.191406 77.503906 108.246094 77.976562 107.292969 78.183594 C 106.878906 78.277344 106.507812 78.238281 106.171875 78.09375 C 106.160156 78.089844 106.144531 78.089844 106.128906 78.085938 C 104.773438 77.726562 103.90625 76.660156 102.9375 75.734375 C 101.925781 74.761719 100.886719 73.816406 100.316406 72.511719 C 100.289062 72.449219 100.28125 72.386719 100.289062 72.324219 C 100.113281 71.976562 100.066406 71.589844 100.164062 71.152344 C 100.375 70.210938 100.851562 69.28125 101.203125 68.386719 C 101.542969 67.523438 101.886719 66.667969 102.238281 65.816406 C 103.617188 62.492188 105.175781 59.222656 107.238281 56.257812 C 109.214844 53.421875 111.621094 50.894531 114.308594 48.699219 C 117.011719 46.496094 119.976562 44.582031 123.085938 42.988281 C 126.191406 41.398438 129.386719 40.195312 132.703125 39.140625 C 132.742188 39.046875 132.835938 38.980469 132.949219 39.019531 C 133.703125 39.257812 134.328125 40.011719 134.90625 40.527344 C 135.441406 41 136.367188 41.578125 136.5625 42.289062 C 137.28125 42.480469 137.867188 43.390625 138.347656 43.917969 C 138.867188 44.492188 139.632812 45.105469 139.875 45.847656 C 139.914062 45.960938 139.847656 46.054688 139.753906 46.089844 Z M 100.332031 79.003906 C 100.355469 79.839844 99.898438 80.703125 99.574219 81.449219 C 99.15625 82.40625 98.65625 83.324219 98.011719 84.148438 C 96.71875 85.792969 94.824219 86.980469 93.117188 88.171875 C 91.207031 89.503906 89.226562 90.699219 87.234375 91.90625 C 86.921875 92.09375 86.664062 91.683594 86.867188 91.441406 C 87.71875 90.425781 88.570312 89.382812 89.46875 88.390625 C 89.363281 88.460938 89.257812 88.535156 89.152344 88.605469 C 88.339844 89.183594 87.527344 89.765625 86.710938 90.335938 C 85.890625 90.90625 85.074219 91.480469 84.257812 92.050781 C 83.351562 92.679688 82.363281 93.257812 81.527344 93.972656 C 81.203125 94.25 80.785156 93.832031 81.058594 93.511719 C 82.402344 91.953125 83.980469 90.550781 85.457031 89.117188 C 86.578125 88.035156 87.722656 86.976562 88.886719 85.945312 C 88.410156 86.179688 87.925781 86.402344 87.433594 86.601562 C 87.132812 86.773438 86.828125 86.941406 86.535156 87.121094 C 86.296875 87.261719 86.109375 86.953125 86.257812 86.769531 C 88.027344 84.609375 90.371094 82.761719 92.589844 81.074219 C 93.742188 80.195312 94.929688 79.351562 96.160156 78.578125 C 96.878906 78.128906 97.679688 77.710938 98.503906 77.796875 C 99.445312 77.671875 100.300781 77.898438 100.332031 79.003906"/></g><g clip-path="url(#e)"><path fill="#E94759" d="M 135.660156 38.042969 C 134.597656 38.429688 131.882812 38.867188 131.390625 39.980469 C 130.925781 41.042969 132.003906 42.976562 132.523438 43.867188 C 133.199219 45.023438 138.273438 49.367188 139.457031 46.871094 C 140.339844 45.007812 144.128906 37.773438 144.1875 35.707031 C 144.214844 34.800781 137.289062 37.449219 135.660156 38.042969 Z M 106.128906 78.085938 C 106.136719 78.085938 106.140625 78.085938 106.148438 78.089844 C 106.128906 78.125 106.105469 78.15625 106.066406 78.175781 C 105.722656 78.375 104.78125 78.921875 103.566406 79.742188 C 102.546875 80.429688 101.507812 80.75 100.921875 80.890625 C 100.628906 80.960938 100.320312 80.875 100.109375 80.664062 L 98.5625 79.140625 L 97.652344 78.238281 C 97.4375 78.027344 97.351562 77.726562 97.421875 77.4375 C 97.5625 76.859375 97.886719 75.835938 98.585938 74.828125 C 99.417969 73.628906 99.972656 72.703125 100.171875 72.363281 C 100.195312 72.324219 100.226562 72.296875 100.265625 72.277344 C 100.273438 72.292969 100.28125 72.308594 100.289062 72.324219 C 100.28125 72.386719 100.289062 72.449219 100.316406 72.511719 C 100.886719 73.816406 101.925781 74.761719 102.9375 75.734375 C 103.90625 76.660156 104.773438 77.726562 106.128906 78.085938"/></g><path fill="#2E2E30" d="M 92.140625 85.761719 C 90.78125 87.070312 89.179688 88.324219 88.078125 89.863281 C 88.039062 89.917969 88.117188 90 88.175781 89.957031 C 89.734375 88.867188 91 87.285156 92.324219 85.9375 C 92.4375 85.820312 92.261719 85.644531 92.140625 85.761719 Z M 89.164062 85.886719 C 89.757812 85.359375 90.441406 84.910156 90.996094 84.347656 C 91.042969 84.296875 90.984375 84.226562 90.925781 84.253906 C 90.214844 84.613281 89.59375 85.207031 89.003906 85.730469 C 88.894531 85.824219 89.054688 85.980469 89.164062 85.886719 Z M 141.703125 38.855469 C 140.84375 39.828125 140.0625 40.847656 139.347656 41.933594 C 138.738281 42.863281 137.828125 44.042969 137.710938 45.171875 C 137.695312 45.328125 137.898438 45.375 138 45.289062 C 138.417969 44.9375 138.667969 44.433594 138.945312 43.972656 C 139.28125 43.40625 139.625 42.851562 139.972656 42.292969 C 140.636719 41.21875 141.324219 40.152344 142.019531 39.09375 C 142.140625 38.910156 141.855469 38.6875 141.703125 38.855469 Z M 113.539062 75.796875 C 113.261719 75.910156 112.984375 76.023438 112.707031 76.136719 C 111.839844 76.484375 110.972656 76.824219 110.101562 77.15625 C 109.460938 77.402344 108.800781 77.707031 108.132812 77.941406 C 108.523438 78.585938 114.703125 77.878906 114.542969 77.601562 C 114.035156 76.726562 113.886719 76.015625 113.539062 75.796875 Z M 135.78125 51.398438 C 134.359375 54.808594 132.910156 58.296875 130.460938 61.132812 C 129.328125 62.445312 128.058594 63.628906 126.773438 64.792969 C 125.492188 65.953125 124.015625 67.066406 123.003906 68.472656 C 122.890625 68.632812 123.125 68.832031 123.277344 68.726562 C 124.722656 67.746094 126.003906 66.449219 127.304688 65.292969 C 128.714844 64.039062 130.097656 62.738281 131.285156 61.277344 C 133.636719 58.386719 134.902344 54.988281 136.085938 51.519531 C 136.144531 51.34375 135.851562 51.226562 135.78125 51.398438 Z M 139.003906 47.410156 C 138.382812 47.207031 137.738281 47.117188 137.121094 46.886719 C 136.53125 46.664062 135.964844 46.382812 135.433594 46.042969 C 134.886719 45.699219 134.375 45.3125 133.871094 44.910156 C 133.289062 44.449219 132.589844 43.988281 132.300781 43.28125 C 132.242188 43.140625 132.019531 43.191406 132.0625 43.34375 C 132.425781 44.597656 133.804688 45.597656 134.839844 46.3125 C 135.96875 47.09375 137.527344 47.882812 138.9375 47.886719 C 139.222656 47.890625 139.265625 47.492188 139.003906 47.410156 Z M 123.820312 58.09375 C 123.832031 59.238281 123.621094 60.183594 123.183594 61.234375 C 123.140625 61.339844 123.289062 61.445312 123.382812 61.382812 C 124.359375 60.746094 124.332031 59.238281 124.308594 58.214844 C 124.277344 56.796875 123.964844 55.472656 123.214844 54.253906 C 123.144531 54.136719 122.972656 54.238281 123.03125 54.363281 C 123.566406 55.519531 123.804688 56.824219 123.820312 58.09375 Z M 123.003906 62.089844 C 122.402344 62.4375 121.882812 62.894531 121.25 63.195312 C 120.523438 63.539062 119.726562 63.75 118.921875 63.792969 C 117.421875 63.875 115.871094 63.40625 114.636719 62.574219 C 114.539062 62.511719 114.417969 62.660156 114.507812 62.738281 C 115.777344 63.832031 117.335938 64.417969 119.035156 64.308594 C 120.503906 64.210938 122.398438 63.605469 123.25 62.332031 C 123.351562 62.183594 123.152344 62.003906 123.003906 62.089844 Z M 104.664062 77.035156 C 104.589844 77.28125 103.710938 77.613281 103.484375 77.746094 C 103.03125 78.011719 102.578125 78.277344 102.128906 78.542969 C 101.3125 79.027344 100.402344 79.476562 99.691406 80.101562 C 99.601562 80.179688 99.695312 80.347656 99.8125 80.304688 C 100.960938 79.875 102.027344 79.089844 103.070312 78.453125 C 103.605469 78.128906 104.324219 77.828125 104.769531 77.394531 C 104.910156 77.261719 104.949219 77.21875 104.902344 77.035156 C 104.871094 76.914062 104.699219 76.925781 104.664062 77.035156 Z M 102.742188 76.054688 C 102.820312 75.953125 102.671875 75.820312 102.566406 75.882812 C 101.859375 76.3125 101.25 76.933594 100.640625 77.488281 C 100.03125 78.046875 99.347656 78.582031 98.839844 79.234375 C 98.730469 79.375 98.941406 79.5625 99.082031 79.472656 C 99.777344 79.019531 100.375 78.386719 100.984375 77.828125 C 101.589844 77.269531 102.253906 76.722656 102.742188 76.054688 Z M 99.53125 76.566406 C 99.246094 77 98.960938 77.433594 98.667969 77.863281 C 98.503906 78.097656 98.234375 78.347656 98.089844 78.589844 C 98.046875 78.664062 97.914062 78.636719 97.921875 78.542969 C 97.957031 78.140625 97.917969 78.082031 98.132812 77.714844 C 98.390625 77.269531 98.679688 76.835938 98.957031 76.398438 C 99.480469 75.585938 99.972656 74.578125 100.703125 73.929688 C 100.824219 73.824219 101.039062 73.925781 100.988281 74.09375 C 100.710938 74.980469 100.039062 75.789062 99.53125 76.566406"/><path fill="#FFF" d="M 94.832031 81.070312 C 95.582031 80.726562 96.5 80.410156 97.117188 79.863281 C 97.1875 79.804688 97.113281 79.703125 97.035156 79.71875 C 96.21875 79.898438 95.421875 80.457031 94.707031 80.859375 C 94.5625 80.9375 94.6875 81.136719 94.832031 81.070312 Z M 97.351562 80.488281 C 97.445312 80.375 97.332031 80.238281 97.199219 80.292969 C 96.382812 80.636719 95.652344 81.375 94.980469 81.9375 C 94.214844 82.574219 93.476562 83.242188 92.742188 83.914062 C 92.640625 84.007812 92.792969 84.152344 92.898438 84.0625 C 93.628906 83.453125 94.378906 82.863281 95.132812 82.277344 C 95.859375 81.714844 96.769531 81.203125 97.351562 80.488281 Z M 98.210938 80.765625 C 97.597656 81.484375 96.960938 82.226562 96.414062 82.992188 C 96.371094 83.046875 96.453125 83.125 96.511719 83.085938 C 97.292969 82.558594 97.980469 81.757812 98.449219 80.945312 C 98.53125 80.804688 98.324219 80.632812 98.210938 80.765625 Z M 138.742188 37.777344 C 137.847656 37.863281 136.972656 38.320312 136.144531 38.652344 C 135.300781 38.988281 134.375 39.261719 133.613281 39.761719 C 133.507812 39.832031 133.53125 40.046875 133.6875 40.027344 C 134.632812 39.902344 135.539062 39.488281 136.425781 39.160156 C 137.238281 38.859375 138.175781 38.597656 138.863281 38.058594 C 138.972656 37.972656 138.882812 37.765625 138.742188 37.777344 Z M 128.546875 42.074219 C 127.953125 42.101562 127.402344 42.414062 126.875 42.664062 C 126.300781 42.9375 125.734375 43.21875 125.167969 43.507812 C 123.957031 44.128906 122.746094 44.75 121.632812 45.527344 C 121.449219 45.652344 121.554688 46.011719 121.796875 45.914062 C 123.003906 45.441406 124.148438 44.847656 125.308594 44.28125 C 125.882812 44.003906 126.453125 43.726562 127.023438 43.449219 C 127.597656 43.171875 128.277344 42.9375 128.707031 42.460938 C 128.832031 42.324219 128.753906 42.066406 128.546875 42.074219 Z M 116.078125 49.910156 C 116.742188 49.375 117.429688 48.863281 118.121094 48.367188 C 118.761719 47.910156 119.480469 47.507812 120.0625 46.976562 C 120.257812 46.800781 120.054688 46.453125 119.800781 46.535156 C 118.324219 47.003906 116.941406 48.128906 115.746094 49.074219 C 114.375 50.15625 113.09375 51.335938 111.902344 52.609375 C 110.773438 53.816406 109.707031 55.082031 108.691406 56.386719 C 107.628906 57.753906 106.675781 59.160156 106.339844 60.878906 C 106.320312 60.972656 106.453125 61.042969 106.503906 60.949219 C 108.035156 58.003906 110.21875 55.445312 112.566406 53.09375 C 113.683594 51.980469 114.847656 50.902344 116.078125 49.910156 Z M 111.847656 81.90625 C 111.769531 81.828125 111.648438 81.925781 111.699219 82.019531 C 112.179688 82.894531 112.660156 83.765625 113.210938 84.601562 C 113.261719 84.683594 113.367188 84.675781 113.421875 84.601562 C 113.726562 84.175781 113.386719 83.726562 113.128906 83.367188 C 112.75 82.835938 112.296875 82.371094 111.847656 81.90625 Z M 98.769531 63.480469 C 98 62.996094 97.023438 62.753906 96.144531 62.542969 C 95.335938 62.351562 94.554688 62.398438 93.78125 62.703125 C 92.1875 63.335938 90.835938 64.699219 89.585938 65.816406 C 89.523438 65.875 89.605469 65.976562 89.679688 65.933594 C 90.390625 65.527344 91.085938 65.125 91.773438 64.675781 C 92.425781 64.246094 93.074219 63.765625 93.800781 63.460938 C 95.441406 62.773438 96.976562 63.976562 98.632812 63.984375 C 98.910156 63.984375 98.996094 63.621094 98.769531 63.480469 Z M 113.375 59.902344 C 113.246094 59.429688 113.242188 58.960938 113.191406 58.476562 C 113.183594 58.394531 113.050781 58.332031 113.007812 58.429688 C 112.613281 59.328125 113.019531 60.492188 113.519531 61.265625 C 113.601562 61.390625 113.808594 61.3125 113.765625 61.164062 C 113.644531 60.738281 113.492188 60.328125 113.375 59.902344 Z M 122.847656 56.722656 C 123.027344 57.21875 123.085938 57.734375 123.039062 58.238281 C 123.039062 58.457031 123.023438 58.671875 122.988281 58.890625 C 122.792969 60.070312 122.054688 61.015625 121.152344 61.78125 C 119.683594 63.023438 117.824219 63.628906 116.105469 62.480469 C 114.460938 61.378906 113.308594 59.496094 113.636719 57.492188 C 113.972656 55.453125 116.023438 54.015625 118.039062 53.8125 C 119.949219 53.625 122.191406 54.917969 122.847656 56.722656"/></svg>